<svg width="164" height="34" viewBox="0 0 164 34" fill="none" xmlns="http://www.w3.org/2000/svg">
<g clip-path="url(#clip0_837_375)">
<ellipse cx="16.5319" cy="16.5331" rx="16.5319" ry="16.5331" fill="#10D1F2"/>
<path d="M12.4263 6.4314C18.6631 3.90108 24.9729 3.83701 29.144 5.84546C31.5885 8.72759 33.0639 12.4577 33.064 16.533C33.064 16.693 33.0607 16.8525 33.0562 17.0115C31.2331 21.099 26.8379 25.0947 20.9653 27.4773C15.1052 29.8548 9.18124 30.0546 5.02686 28.4041C2.17178 25.6361 0.313268 21.8478 0.0375977 17.6267C1.64083 13.2904 6.20478 8.95562 12.4263 6.4314Z" fill="#0D9ED2"/>
<path d="M16.7136 6.40399C23.9771 6.40405 30.2339 10.7088 33.075 16.9059C30.4188 23.526 23.9432 28.2016 16.3738 28.2018C9.10967 28.2018 2.85221 23.8959 0.0114746 17.6979C2.66797 11.0784 9.14447 6.40399 16.7136 6.40399Z" fill="white"/>
<circle cx="16.8974" cy="17.303" r="8.2101" fill="#31363C"/>
<circle cx="19.9858" cy="13.8888" r="2.05252" fill="white"/>
<path d="M52.5126 12.1638C52.4217 11.3569 52.0467 10.7319 51.3876 10.2888C50.7285 9.8399 49.8989 9.61547 48.8989 9.61547C48.183 9.61547 47.5637 9.7291 47.041 9.95638C46.5183 10.178 46.112 10.4848 45.8222 10.8768C45.5381 11.2632 45.3961 11.7035 45.3961 12.1979C45.3961 12.6126 45.4927 12.9706 45.6859 13.2717C45.8847 13.5729 46.1433 13.8257 46.4614 14.0302C46.7853 14.2291 47.1319 14.3967 47.5012 14.5331C47.8705 14.6638 48.2256 14.7717 48.5666 14.8569L50.2711 15.3001C50.8279 15.4365 51.3989 15.6211 51.9842 15.8541C52.5694 16.0871 53.112 16.3939 53.612 16.7746C54.112 17.1552 54.5154 17.6268 54.8222 18.1893C55.1347 18.7518 55.291 19.4251 55.291 20.2092C55.291 21.1979 55.0353 22.0757 54.5239 22.8427C54.0183 23.6098 53.2825 24.2149 52.3166 24.6581C51.3563 25.1013 50.1944 25.3229 48.8308 25.3229C47.5239 25.3229 46.3933 25.1155 45.4387 24.7007C44.4842 24.2859 43.737 23.6979 43.1972 22.9365C42.6575 22.1694 42.3592 21.2604 42.3023 20.2092H44.9444C44.9955 20.8399 45.2001 21.3655 45.558 21.7859C45.9217 22.2007 46.3847 22.5104 46.9472 22.7149C47.5154 22.9138 48.1376 23.0132 48.8137 23.0132C49.558 23.0132 50.22 22.8967 50.7995 22.6638C51.3847 22.4251 51.845 22.0956 52.1802 21.6751C52.5154 21.249 52.683 20.7518 52.683 20.1836C52.683 19.6666 52.5353 19.2433 52.2398 18.9138C51.9501 18.5842 51.5552 18.3115 51.0552 18.0956C50.5609 17.8797 50.0012 17.6893 49.3762 17.5246L47.3137 16.9621C45.916 16.5814 44.808 16.0217 43.9898 15.2831C43.1773 14.5444 42.7711 13.5672 42.7711 12.3513C42.7711 11.3456 43.0438 10.4677 43.5893 9.71774C44.1347 8.96774 44.8734 8.38535 45.8052 7.97058C46.737 7.55013 47.7881 7.3399 48.9586 7.3399C50.1404 7.3399 51.183 7.54729 52.0864 7.96206C52.9955 8.37683 53.7114 8.94785 54.2342 9.67513C54.7569 10.3967 55.0296 11.2263 55.0523 12.1638H52.5126ZM63.8755 25.2973C62.5857 25.2973 61.4749 25.0217 60.5431 24.4706C59.617 23.9138 58.9011 23.1325 58.3954 22.1268C57.8954 21.1155 57.6454 19.9308 57.6454 18.5729C57.6454 17.2319 57.8954 16.0501 58.3954 15.0274C58.9011 14.0047 59.6056 13.2064 60.509 12.6325C61.4181 12.0586 62.4806 11.7717 63.6965 11.7717C64.4352 11.7717 65.1511 11.8939 65.8442 12.1382C66.5374 12.3825 67.1596 12.766 67.7107 13.2888C68.2619 13.8115 68.6965 14.4905 69.0147 15.3257C69.3329 16.1552 69.492 17.1638 69.492 18.3513V19.2547H59.0857V17.3456H66.9948C66.9948 16.6751 66.8585 16.0814 66.5857 15.5643C66.313 15.0416 65.9295 14.6297 65.4352 14.3285C64.9465 14.0274 64.3727 13.8768 63.7136 13.8768C62.9977 13.8768 62.3727 14.053 61.8386 14.4052C61.3102 14.7518 60.9011 15.2064 60.6113 15.7689C60.3272 16.3257 60.1852 16.9308 60.1852 17.5842V19.0757C60.1852 19.9507 60.3386 20.695 60.6454 21.3086C60.9579 21.9223 61.3925 22.391 61.9494 22.7149C62.5062 23.0331 63.1567 23.1922 63.9011 23.1922C64.384 23.1922 64.8244 23.124 65.2221 22.9876C65.6198 22.8456 65.9636 22.6354 66.2533 22.3569C66.5431 22.0785 66.7647 21.7348 66.9181 21.3257L69.33 21.7604C69.1369 22.4706 68.7903 23.0927 68.2903 23.6268C67.796 24.1552 67.1738 24.5672 66.4238 24.8626C65.6795 25.1524 64.83 25.2973 63.8755 25.2973ZM74.8677 17.2604V25.0331H72.3194V11.9422H74.7654V14.0729H74.9273C75.2285 13.3797 75.7001 12.8229 76.3421 12.4024C76.9898 11.9819 77.8052 11.7717 78.7881 11.7717C79.6802 11.7717 80.4614 11.9592 81.1319 12.3342C81.8023 12.7035 82.3222 13.2547 82.6916 13.9876C83.0609 14.7206 83.2455 15.6268 83.2455 16.7064V25.0331H80.6972V17.0132C80.6972 16.0643 80.4501 15.3229 79.9558 14.7888C79.4614 14.249 78.7825 13.9791 77.9188 13.9791C77.3279 13.9791 76.8023 14.1069 76.3421 14.3626C75.8876 14.6183 75.5268 14.9933 75.2597 15.4876C74.9984 15.9763 74.8677 16.5672 74.8677 17.2604ZM96.4728 15.1382L94.1631 15.5473C94.0666 15.2518 93.9131 14.9706 93.7029 14.7035C93.4984 14.4365 93.22 14.2177 92.8677 14.0473C92.5154 13.8768 92.0751 13.7916 91.5467 13.7916C90.8251 13.7916 90.2228 13.9535 89.7398 14.2774C89.2569 14.5956 89.0154 15.0075 89.0154 15.5132C89.0154 15.9507 89.1773 16.303 89.5012 16.57C89.8251 16.8371 90.3478 17.0558 91.0694 17.2263L93.1489 17.7035C94.3535 17.9819 95.2512 18.4109 95.8421 18.9905C96.433 19.57 96.7285 20.3229 96.7285 21.249C96.7285 22.0331 96.5012 22.7319 96.0467 23.3456C95.5978 23.9535 94.97 24.4308 94.1631 24.7774C93.362 25.124 92.433 25.2973 91.3762 25.2973C89.9103 25.2973 88.7143 24.9848 87.7881 24.3598C86.862 23.7291 86.2938 22.8342 86.0836 21.6751L88.5467 21.3001C88.7001 21.9422 89.0154 22.428 89.4927 22.7575C89.97 23.0814 90.5921 23.2433 91.3592 23.2433C92.1944 23.2433 92.862 23.07 93.362 22.7234C93.862 22.3711 94.112 21.9422 94.112 21.4365C94.112 21.0274 93.9586 20.6836 93.6518 20.4052C93.3506 20.1268 92.8876 19.9166 92.2626 19.7746L90.0467 19.2888C88.8251 19.0104 87.9217 18.5672 87.3364 17.9592C86.7569 17.3513 86.4671 16.5814 86.4671 15.6496C86.4671 14.8768 86.683 14.2007 87.1148 13.6211C87.5467 13.0416 88.1433 12.5899 88.9046 12.266C89.666 11.9365 90.5381 11.7717 91.5211 11.7717C92.9359 11.7717 94.0495 12.0785 94.862 12.6922C95.6745 13.3001 96.2114 14.1155 96.4728 15.1382ZM107.243 16.553V18.7604H99.5048V16.553H107.243ZM111.385 7.57854L116.243 21.7944H116.439L121.297 7.57854H124.144L117.863 25.0331H114.82L108.539 7.57854H111.385ZM134.753 19.6041V11.9422H137.309V25.0331H134.804V22.766H134.667C134.366 23.4649 133.883 24.0473 133.219 24.5132C132.559 24.9734 131.738 25.2035 130.755 25.2035C129.915 25.2035 129.17 25.0189 128.523 24.6496C127.88 24.2746 127.375 23.7206 127.005 22.9876C126.642 22.2547 126.46 21.3484 126.46 20.2689V11.9422H129.008V19.9621C129.008 20.8541 129.255 21.5643 129.75 22.0927C130.244 22.6211 130.886 22.8854 131.676 22.8854C132.153 22.8854 132.628 22.766 133.099 22.5274C133.576 22.2888 133.971 21.928 134.284 21.445C134.602 20.9621 134.758 20.3484 134.753 19.6041ZM146.375 25.2973C145.086 25.2973 143.975 25.0217 143.043 24.4706C142.117 23.9138 141.401 23.1325 140.895 22.1268C140.395 21.1155 140.145 19.9308 140.145 18.5729C140.145 17.2319 140.395 16.0501 140.895 15.0274C141.401 14.0047 142.106 13.2064 143.009 12.6325C143.918 12.0586 144.981 11.7717 146.197 11.7717C146.935 11.7717 147.651 11.8939 148.344 12.1382C149.037 12.3825 149.66 12.766 150.211 13.2888C150.762 13.8115 151.197 14.4905 151.515 15.3257C151.833 16.1552 151.992 17.1638 151.992 18.3513V19.2547H141.586V17.3456H149.495C149.495 16.6751 149.358 16.0814 149.086 15.5643C148.813 15.0416 148.429 14.6297 147.935 14.3285C147.447 14.0274 146.873 13.8768 146.214 13.8768C145.498 13.8768 144.873 14.053 144.339 14.4052C143.81 14.7518 143.401 15.2064 143.111 15.7689C142.827 16.3257 142.685 16.9308 142.685 17.5842V19.0757C142.685 19.9507 142.839 20.695 143.145 21.3086C143.458 21.9223 143.893 22.391 144.449 22.7149C145.006 23.0331 145.657 23.1922 146.401 23.1922C146.884 23.1922 147.324 23.124 147.722 22.9876C148.12 22.8456 148.464 22.6354 148.753 22.3569C149.043 22.0785 149.265 21.7348 149.418 21.3257L151.83 21.7604C151.637 22.4706 151.29 23.0927 150.79 23.6268C150.296 24.1552 149.674 24.5672 148.924 24.8626C148.179 25.1524 147.33 25.2973 146.375 25.2973ZM154.819 25.0331V11.9422H157.282V14.0217H157.419C157.657 13.3172 158.078 12.7632 158.68 12.3598C159.288 11.9507 159.976 11.7461 160.743 11.7461C160.902 11.7461 161.089 11.7518 161.305 11.7632C161.527 11.7746 161.7 11.7888 161.825 11.8058V14.2433C161.723 14.2149 161.541 14.1836 161.28 14.1496C161.018 14.1098 160.757 14.0899 160.496 14.0899C159.893 14.0899 159.356 14.2177 158.885 14.4734C158.419 14.7234 158.05 15.0729 157.777 15.5217C157.504 15.9649 157.368 16.4706 157.368 17.0388V25.0331H154.819Z" fill="#31363C"/>
</g>
<defs>
<clipPath id="clip0_837_375">
<rect width="163.075" height="33.0662" fill="white"/>
</clipPath>
</defs>
</svg>
