<svg width="34" height="34" viewBox="0 0 34 34" fill="none" xmlns="http://www.w3.org/2000/svg">
<ellipse cx="16.5319" cy="16.5331" rx="16.5319" ry="16.5331" fill="#10D1F2"/>
<path d="M12.4263 6.4314C18.6631 3.90108 24.9729 3.83701 29.144 5.84546C31.5885 8.72759 33.0639 12.4577 33.064 16.533C33.064 16.693 33.0607 16.8525 33.0562 17.0115C31.2331 21.099 26.8379 25.0947 20.9653 27.4773C15.1052 29.8548 9.18124 30.0546 5.02686 28.4041C2.17178 25.6361 0.313268 21.8478 0.0375977 17.6267C1.64083 13.2904 6.20478 8.95562 12.4263 6.4314Z" fill="#0D9ED2"/>
<path d="M16.7136 6.40399C23.9771 6.40405 30.2339 10.7088 33.075 16.9059C30.4188 23.526 23.9432 28.2016 16.3738 28.2018C9.10967 28.2018 2.85221 23.8959 0.0114746 17.6979C2.66797 11.0784 9.14447 6.40399 16.7136 6.40399Z" fill="white"/>
<circle cx="16.8974" cy="17.303" r="8.2101" fill="#31363C"/>
<circle cx="19.9858" cy="13.8888" r="2.05252" fill="white"/>
</svg>
